<svg xmlns="http://www.w3.org/2000/svg" 
     viewBox="0 0 400 229" 
     width="400" height="229">
  <path d="M 111.73,167.99 L 138.35,189.21 L 145.7,194.35 L 151.39,197.74 L 153.5,198.75 L 154.32,199.0 L 155.24,198.84 L 156.06,198.34 L 156.62,197.49 L 156.9,196.72 L 156.81,195.79 L 151.02,179.14 L 148.44,171.45 L 147.99,169.08 L 147.9,167.05 L 147.99,164.69 L 148.44,162.48 L 149.27,159.7 L 150.55,157.33 L 151.93,155.22 L 153.86,153.01 L 155.97,151.49 L 158.82,149.71 L 174.33,140.08 L 180.68,136.1 L 182.04,134.75 L 183.24,133.14 L 184.25,131.79 L 185.08,129.93 L 185.72,128.33 L 187.38,123.68 L 188.48,122.16 L 189.86,120.38 L 191.69,119.2 L 193.17,118.43 L 196.83,116.99 L 199.68,115.56 L 201.33,114.28 L 202.35,113.03 L 203.27,111.33 L 203.62,109.3 L 204.18,105.84 L 204.46,103.63 L 205.0,101.19 L 205.75,99.42 L 206.66,97.71 L 207.86,96.03 L 209.14,94.5 L 211.07,92.81 L 213.27,91.2 L 215.66,89.85 L 218.22,88.76 L 220.44,88.24 L 222.27,88.17 L 223.74,88.24 L 226.13,88.92 L 241.36,95.94 L 242.84,96.53 L 244.39,96.53 L 245.58,96.03 L 248.62,94.16 L 252.19,91.29 L 254.77,88.67 L 257.34,85.21 L 259.27,82.93 L 261.02,81.57 L 262.94,80.73 L 264.42,80.38 L 266.53,80.38 L 268.91,81.07 L 270.74,82.07 L 272.22,83.52 L 273.04,84.53 L 273.86,85.8 L 274.61,87.24 L 275.71,88.42 L 277.0,88.92 L 278.27,88.92 L 305.73,82.84 L 307.48,82.25 L 308.58,81.66 L 309.4,80.89 L 325.47,61.37 L 339.61,44.28 L 345.02,37.35 L 347.24,33.3 L 347.41,32.28 L 347.14,31.35 L 346.49,30.84 L 345.67,30.25 L 344.76,30.0 L 343.75,30.07 L 342.37,30.41 L 312.99,39.81 L 292.51,45.55 L 269.92,51.04 L 242.93,56.46 L 226.04,59.25 L 210.42,61.53 L 164.42,66.61 L 159.29,67.54 L 158.64,67.95 L 158.36,68.8 L 158.45,69.48 L 159.1,70.41 L 162.13,73.78 L 172.6,88.17 L 177.19,95.61 L 177.47,96.71 L 177.19,98.3 L 176.54,99.42 L 175.34,100.26 L 174.33,100.51 L 172.41,100.76 L 163.88,100.08 L 163.04,99.67 L 162.31,98.98 L 161.58,98.14 L 160.93,96.96 L 159.19,92.22 L 158.45,90.36 L 157.26,88.67 L 151.66,82.93 L 150.83,82.25 L 149.82,81.82 L 148.82,81.66 L 143.31,81.16 L 142.21,81.23 L 141.56,81.66 L 140.92,82.41 L 140.64,83.43 L 141.01,84.62 L 151.66,102.97 L 155.97,111.07 L 156.34,113.28 L 156.25,115.47 L 155.89,117.24 L 155.42,119.02 L 154.23,122.32 L 152.57,125.96 L 151.47,127.4 L 149.64,128.74 L 147.53,129.76 L 138.81,133.73 L 137.06,134.16 L 135.32,134.25 L 132.11,134.0 L 129.07,133.57 L 126.14,132.63 L 122.93,131.36 L 120.07,129.67 L 118.15,128.24 L 116.86,126.05 L 106.85,112.01 L 99.05,102.2 L 98.04,101.19 L 96.85,100.67 L 95.28,100.35 L 93.9,100.42 L 91.98,100.94 L 89.68,101.69 L 87.76,102.45 L 55.52,116.58 L 53.69,117.84 L 52.96,119.02 L 52.59,120.29 L 52.96,121.23 L 53.69,122.07 L 54.61,122.91 L 71.5,136.53 L 111.73,167.99 Z" 
        fill="none" 
        stroke="#000000" 
        stroke-width="5" 
        stroke-linecap="round" 
        stroke-linejoin="round"/>
</svg>